<?xml version="1.0" standalone="no"?>
<!DOCTYPE svg PUBLIC "-//W3C//DTD SVG 20010904//EN"
 "http://www.w3.org/TR/2001/REC-SVG-20010904/DTD/svg10.dtd">
<svg version="1.0" xmlns="http://www.w3.org/2000/svg"
 width="982.000000pt" height="475.000000pt" viewBox="0 0 982.000000 475.000000"
 preserveAspectRatio="xMidYMid meet">

<g transform="translate(0.000000,475.000000) scale(0.100000,-0.100000)"
fill="#000000" stroke="none">
<path d="M5705 3896 c-96 -16 -167 -38 -255 -80 -82 -39 -206 -158 -244 -234
-62 -123 -82 -297 -51 -431 42 -176 175 -295 410 -366 120 -37 182 -69 205
-108 25 -41 25 -73 0 -114 -28 -47 -80 -60 -172 -43 -99 17 -153 37 -295 109
-153 76 -195 79 -222 13 -10 -25 -8 -46 13 -133 32 -130 46 -224 46 -316 0
-88 11 -118 49 -138 40 -20 79 -19 126 5 22 11 51 20 66 20 25 0 200 -38 207
-45 2 -1 -46 -108 -107 -237 -132 -282 -182 -396 -205 -465 -16 -48 -16 -54
-1 -83 9 -18 31 -38 50 -46 44 -18 110 -18 128 0 8 8 31 57 53 110 21 53 41
96 44 96 3 0 13 -12 22 -27 9 -16 39 -51 67 -80 128 -129 263 -129 407 0 l49
44 19 -24 c10 -14 44 -37 75 -52 52 -24 65 -26 186 -25 421 4 797 226 798 470
1 103 -53 174 -182 238 -67 34 -103 44 -316 91 -66 15 -133 34 -149 42 l-28
15 33 35 c64 66 164 135 284 194 66 32 135 62 152 65 28 6 34 3 42 -19 16 -43
39 -48 132 -32 46 8 90 15 98 15 21 0 4 -87 -30 -146 -43 -77 -39 -133 12
-160 24 -12 57 -13 189 -8 88 4 160 5 160 2 0 -3 -30 -67 -66 -141 -46 -96
-67 -151 -71 -189 -5 -51 -4 -56 22 -76 15 -12 37 -22 49 -22 34 0 109 30 133
52 13 12 65 99 115 195 l93 173 68 0 c59 0 71 3 92 25 33 32 33 87 0 140 -13
22 -25 48 -25 58 0 11 50 104 111 209 61 105 114 201 119 213 14 36 -21 75
-66 75 -19 0 -34 2 -34 5 0 3 26 40 58 83 138 182 210 342 312 689 22 73 50
149 64 170 36 52 36 114 0 150 -19 19 -32 24 -52 19 -62 -13 -318 -17 -456 -7
-126 9 -153 8 -177 -4 -56 -29 -65 -95 -24 -175 15 -29 25 -66 25 -90 0 -60
-27 -180 -61 -273 -74 -200 -114 -214 -184 -62 -75 162 -95 336 -50 433 33 72
33 121 -1 153 -25 23 -30 24 -132 19 -59 -3 -192 -5 -297 -5 -104 0 -240 2
-302 5 -107 5 -112 4 -137 -19 -36 -34 -35 -88 3 -155 18 -33 37 -90 51 -161
43 -213 153 -503 241 -632 18 -26 73 -91 122 -143 l88 -95 -108 -12 c-110 -12
-236 -44 -343 -87 l-60 -25 0 63 c0 144 -39 255 -121 341 -63 67 -146 110
-284 149 -55 16 -130 37 -168 47 -38 11 -80 31 -98 47 -55 49 -48 146 12 177
61 32 213 10 391 -57 123 -46 161 -47 192 -5 18 25 19 31 8 70 -34 117 -52
228 -52 330 0 100 -2 110 -24 132 -31 31 -90 42 -130 25 -45 -20 -86 -17 -226
13 -153 34 -362 44 -485 23z m2454 -1185 c10 -7 -24 -74 -152 -297 -90 -159
-215 -383 -277 -497 -63 -116 -124 -215 -136 -224 -13 -8 -45 -15 -71 -16
l-48 -2 2 38 c2 22 23 82 48 135 127 269 463 832 514 862 20 12 101 13 120 1z
m-851 -116 c69 -21 88 -59 60 -119 -20 -45 -96 -71 -265 -91 -49 -5 -53 -4
-53 15 0 12 5 30 10 41 15 27 -9 25 -112 -7 -159 -50 -307 -136 -421 -243 -54
-51 -67 -70 -65 -89 6 -49 32 -59 343 -131 52 -12 126 -39 175 -63 71 -36 91
-51 118 -93 31 -46 34 -55 30 -112 -3 -52 -10 -71 -43 -119 -90 -131 -319
-249 -550 -284 -113 -17 -241 -18 -299 -1 -57 17 -111 66 -121 110 l-7 31 -43
-53 c-24 -29 -68 -71 -99 -92 -69 -47 -150 -59 -206 -30 -53 27 -120 95 -171
173 l-48 74 -16 -39 c-9 -21 -35 -83 -58 -138 l-43 -100 -40 3 c-21 2 -48 12
-58 22 -18 17 -18 23 -7 62 25 83 320 718 482 1039 l68 135 63 32 c52 26 65
29 76 18 16 -15 16 -14 -228 -519 -95 -197 -170 -360 -168 -363 9 -8 127 85
212 169 65 63 87 92 95 123 16 60 72 83 111 44 30 -30 26 -85 -12 -150 -38
-67 -186 -214 -256 -255 -29 -16 -52 -34 -52 -38 0 -19 51 -105 80 -135 66
-66 109 -54 215 61 83 90 105 96 105 26 l0 -42 21 27 c22 28 78 62 80 49 1 -5
1 -16 0 -25 -5 -43 144 -74 269 -57 145 20 311 88 408 166 127 103 91 139
-200 198 -223 45 -285 66 -342 116 -97 85 -87 208 28 335 113 126 390 269 616
318 89 20 253 20 318 1z m-1059 -589 c23 -78 101 -139 226 -179 28 -9 122 -30
210 -47 165 -33 225 -51 225 -69 0 -18 -100 -90 -176 -127 -116 -55 -251 -87
-354 -81 -96 6 -120 12 -120 35 0 40 -50 63 -90 42 -15 -8 -24 -6 -40 10 -33
33 -67 26 -108 -22 -84 -98 -129 -138 -154 -138 -25 0 -60 32 -91 82 l-17 27
48 33 c73 50 224 207 256 266 29 55 37 106 23 155 -6 24 -5 27 15 28 13 0 43
6 68 13 66 19 65 20 79 -28z m-380 -5 c32 -21 -21 -99 -128 -186 l-24 -20 17
32 c9 18 32 67 51 108 34 75 50 88 84 66z"/>
<path d="M1404 3866 c-55 -25 -59 -87 -11 -179 l32 -62 0 -670 0 -670 -32 -57
c-38 -66 -43 -123 -15 -157 l17 -22 710 -3 c391 -1 718 1 727 6 21 10 31 42
64 203 14 72 37 164 50 205 32 100 31 133 -2 159 -34 27 -47 26 -130 -5 -131
-49 -201 -59 -439 -59 -163 0 -226 3 -243 13 -22 12 -23 18 -20 110 4 128 -5
124 248 119 170 -3 203 -6 255 -25 32 -12 74 -22 92 -22 33 0 73 28 73 53 4
94 1 389 -4 405 -4 12 -21 26 -40 32 -28 9 -46 7 -112 -15 -132 -42 -460 -48
-499 -8 -22 22 -21 176 2 194 13 11 57 13 207 11 219 -3 330 -14 434 -43 81
-22 120 -19 148 12 18 20 18 23 -4 102 -13 45 -34 136 -48 202 -26 127 -41
161 -79 175 -14 5 -115 5 -252 -2 -213 -10 -932 -5 -1048 7 -32 3 -61 0 -81
-9z"/>
<path d="M3651 3863 c-44 -23 -90 -101 -169 -284 -123 -288 -250 -678 -346
-1060 -54 -216 -71 -264 -101 -289 -41 -34 -59 -117 -32 -150 7 -8 24 -23 40
-33 17 -11 27 -26 27 -41 0 -34 44 -82 85 -96 85 -28 193 36 187 111 -2 28 0
29 38 29 39 0 40 -1 29 -22 -7 -13 -55 -99 -107 -193 -209 -374 -322 -610
-322 -671 0 -111 165 -159 218 -63 35 64 32 63 97 27 60 -33 61 -33 195 -33
115 1 145 4 200 24 109 39 207 92 265 143 l54 49 7 -28 c20 -91 48 -129 116
-157 50 -21 97 -20 164 3 108 39 249 163 348 309 33 48 38 52 33 27 -17 -84
-18 -107 -7 -160 29 -140 163 -192 312 -121 202 96 439 425 442 613 1 90 -24
118 -144 164 -57 22 -157 16 -220 -13 -68 -31 -161 -107 -232 -191 l-55 -64 1
63 c1 91 -23 119 -144 165 -19 8 -64 13 -100 13 -100 0 -180 -43 -296 -159
-51 -51 -100 -108 -110 -126 -16 -31 -18 -32 -28 -15 -26 45 -81 96 -126 119
l-48 24 61 44 c90 62 155 126 197 191 27 41 40 54 48 46 7 -7 137 -11 408 -12
371 -1 399 0 421 17 35 28 32 90 -8 153 -47 72 -55 95 -98 283 -102 437 -343
1149 -442 1303 -48 74 -70 80 -226 67 -121 -11 -464 -7 -558 6 -28 4 -50 1
-74 -12z m353 -511 c34 -39 126 -330 126 -403 0 -69 -11 -74 -165 -74 -125 0
-138 2 -152 20 -20 27 -12 85 27 210 37 113 83 220 107 247 21 23 36 23 57 0z
m28 -971 c136 -53 193 -193 129 -319 -45 -87 -170 -196 -305 -265 -66 -34 -68
-36 -40 -42 128 -26 204 -71 235 -138 27 -61 24 -113 -11 -185 -55 -109 -184
-208 -347 -265 -77 -27 -102 -31 -198 -31 -82 -1 -122 3 -156 17 -52 20 -99
64 -102 96 -1 11 -3 21 -5 21 -1 0 -20 -38 -42 -84 -40 -88 -58 -104 -105 -92
-38 10 -55 34 -55 79 0 50 87 233 262 552 180 329 242 429 274 444 40 18 120
26 128 13 8 -14 -46 -123 -181 -360 l-25 -44 23 7 c52 15 235 107 301 151 103
69 184 147 203 198 15 40 15 46 1 74 -22 43 -71 57 -186 56 -189 -3 -403 -82
-527 -197 -46 -43 -55 -62 -23 -54 33 8 24 -19 -14 -42 -71 -45 -156 -12 -156
60 0 137 244 305 530 365 103 21 320 13 392 -15z m178 -4 c26 -16 43 -69 35
-107 -9 -39 -18 -38 -34 5 -6 19 -33 56 -59 81 l-47 47 43 -7 c24 -3 52 -12
62 -19z m-260 -170 c14 -7 26 -22 28 -33 7 -51 -136 -179 -295 -262 -44 -23
-84 -42 -87 -42 -10 0 72 144 105 184 25 29 33 50 36 90 3 28 6 57 8 64 6 17
171 16 205 -1z m1293 -287 c14 -11 40 -20 60 -20 27 0 41 -7 57 -27 58 -73
-17 -274 -171 -461 -180 -218 -390 -282 -461 -141 -42 81 -6 258 78 385 50 76
166 193 228 229 98 57 166 69 209 35z m-650 -40 c14 -11 40 -20 60 -20 27 0
41 -7 57 -27 58 -73 -17 -274 -171 -461 -180 -218 -390 -282 -461 -141 -42 81
-6 258 78 385 50 76 166 193 228 229 98 57 166 69 209 35z"/>
<path d="M3341 1499 l-73 -140 38 20 c23 13 57 21 84 21 l45 -1 -22 -18 c-30
-25 -30 -67 -1 -82 33 -18 155 -13 225 9 80 25 147 69 211 136 81 85 80 126
-5 168 -43 21 -62 23 -183 23 -87 0 -148 -5 -173 -14 -33 -11 -40 -11 -56 3
-16 15 -22 7 -90 -125z m477 74 c55 -27 53 -47 -15 -111 -73 -70 -178 -120
-267 -129 -36 -3 -72 -3 -81 1 -15 5 -15 7 -1 22 22 21 20 61 -3 74 -11 5 -33
10 -50 10 -37 0 -38 7 -7 68 21 42 30 49 72 61 120 35 286 36 352 4z"/>
<path d="M5105 1786 c-136 -92 -265 -286 -265 -400 0 -64 19 -75 77 -47 92 44
215 190 283 333 37 78 38 105 5 118 -14 5 -25 14 -25 20 0 18 -24 11 -75 -24z
m71 -40 c13 -33 -118 -240 -195 -308 -25 -22 -59 -47 -75 -55 l-29 -15 7 39
c9 48 75 171 124 231 43 53 127 122 148 122 8 0 17 -6 20 -14z"/>
<path d="M4455 1746 c-136 -92 -265 -286 -265 -400 0 -64 19 -75 77 -47 92 44
215 190 283 333 37 78 38 105 5 118 -14 5 -25 14 -25 20 0 18 -24 11 -75 -24z
m71 -40 c13 -33 -118 -240 -195 -308 -25 -22 -59 -47 -75 -55 l-29 -15 7 39
c9 48 75 171 124 231 43 53 127 122 148 122 8 0 17 -6 20 -14z"/>
<path d="M7385 1544 c-111 -58 -153 -202 -76 -261 22 -17 86 -16 119 1 34 18
75 62 96 103 19 38 21 111 3 134 -31 40 -91 50 -142 23z m113 -80 c5 -60 -77
-154 -134 -154 -33 0 -58 41 -50 83 14 72 114 143 161 113 11 -7 21 -26 23
-42z"/>
</g>
</svg>
