<svg width="226" height="90" viewBox="0 0 226 90" fill="none" xmlns="http://www.w3.org/2000/svg">
<path d="M135.773 0.608837C132.781 1.10736 130.569 1.79284 127.827 3.10147C125.272 4.31663 121.408 8.02442 120.224 10.3924C118.292 14.2248 117.668 19.6463 118.634 23.8215C119.943 29.3053 124.088 33.013 131.41 35.2253C135.15 36.3781 137.082 37.3752 137.798 38.5903C138.577 39.8678 138.577 40.8648 137.798 42.1423C136.926 43.6067 135.306 44.0118 132.439 43.4821C129.354 42.9524 127.671 42.3293 123.246 40.0859C118.479 37.7179 117.17 37.6244 116.329 39.6808C116.017 40.4598 116.079 41.1141 116.734 43.8248C117.731 47.8754 118.167 50.8042 118.167 53.6707C118.167 56.4126 118.51 57.3474 119.694 57.9705C120.94 58.5937 122.156 58.5625 123.62 57.8147C124.306 57.472 125.209 57.1916 125.677 57.1916C126.456 57.1916 131.909 58.3756 132.127 58.5937C132.189 58.6248 130.694 61.9587 128.793 65.9781C124.68 74.7646 123.122 78.3166 122.405 80.4665C121.906 81.9621 121.906 82.1491 122.374 83.0526C122.654 83.6135 123.34 84.2366 123.932 84.4859C125.303 85.0467 127.359 85.0467 127.92 84.4859C128.17 84.2366 128.886 82.7099 129.572 81.0585C130.226 79.4072 130.85 78.0674 130.943 78.0674C131.036 78.0674 131.348 78.4413 131.629 78.9086C131.909 79.4072 132.844 80.4977 133.716 81.4013C137.705 85.4206 141.912 85.4206 146.399 81.4013L147.926 80.0303L148.518 80.7781C148.829 81.2143 149.889 81.9309 150.855 82.3983C152.475 83.1461 152.88 83.2084 156.651 83.1773C169.769 83.0526 181.486 76.1356 181.517 68.5331C181.548 65.3238 179.866 63.1116 175.846 61.1175C173.758 60.0581 172.636 59.7465 165.999 58.2821C163.942 57.8147 161.855 57.2227 161.356 56.9735L160.484 56.5061L161.512 55.4156C163.506 53.3592 166.622 51.2093 170.362 49.3709C172.418 48.3739 174.568 47.4392 175.098 47.3457C175.97 47.1587 176.157 47.2522 176.407 47.9377C176.905 49.2775 177.622 49.4333 180.52 48.9347C181.953 48.6855 183.324 48.4674 183.574 48.4674C184.228 48.4674 183.698 51.1781 182.639 53.0164C181.299 55.4156 181.424 57.1604 183.013 58.0017C183.761 58.3756 184.789 58.4067 188.902 58.2509C191.644 58.1263 193.888 58.0952 193.888 58.1886C193.888 58.2821 192.953 60.2762 191.831 62.5819C190.398 65.5731 189.744 67.2867 189.619 68.4707C189.463 70.0598 189.494 70.2156 190.304 70.8387C190.772 71.2126 191.457 71.5242 191.831 71.5242C192.891 71.5242 195.228 70.5895 195.976 69.904C196.381 69.5301 198.001 66.8194 199.559 63.8282L202.457 58.4379H204.576C206.415 58.4379 206.789 58.3444 207.443 57.6589C208.471 56.6619 208.471 54.9482 207.443 53.2968C207.038 52.6114 206.664 51.8013 206.664 51.4897C206.664 51.1469 208.222 48.2493 210.123 44.9777C212.024 41.7061 213.675 38.7149 213.831 38.341C214.267 37.2194 213.177 36.0042 211.774 36.0042C211.182 36.0042 210.715 35.9419 210.715 35.8484C210.715 35.7549 211.525 34.6021 212.522 33.2623C216.822 27.5916 219.066 22.6063 222.244 11.7945C222.93 9.52 223.802 7.152 224.239 6.49768C225.361 4.87747 225.361 2.94568 224.239 1.824C223.647 1.232 223.242 1.07621 222.618 1.232C220.686 1.63705 212.709 1.76168 208.409 1.4501C204.483 1.16968 203.641 1.20084 202.893 1.57473C201.148 2.47831 200.868 4.53473 202.146 7.02736C202.613 7.93094 202.925 9.08378 202.925 9.83157C202.925 11.701 202.083 15.44 201.024 18.3377C198.718 24.5693 197.472 25.0055 195.29 20.2695C192.953 15.2219 192.33 9.80042 193.732 6.7781C194.761 4.53473 194.761 3.008 193.701 2.01094C192.922 1.29431 192.766 1.26315 189.588 1.41894C187.749 1.51242 183.605 1.57473 180.333 1.57473C177.092 1.57473 172.854 1.51242 170.922 1.41894C167.588 1.26315 167.432 1.29431 166.653 2.01094C165.532 3.07031 165.563 4.75284 166.747 6.84042C167.308 7.86863 167.9 9.64463 168.336 11.8568C169.676 18.4935 173.104 27.5293 175.846 31.5486C176.407 32.3587 178.121 34.384 179.647 36.0042L182.39 38.9642L179.024 39.3381C175.597 39.712 171.67 40.709 168.336 42.0488L166.466 42.8278V40.8648C166.466 36.3781 165.251 32.9196 162.696 30.24C160.733 28.1524 158.146 26.8126 153.846 25.5975C152.132 25.0989 149.795 24.4446 148.611 24.133C147.427 23.7903 146.118 23.1672 145.557 22.6686C143.844 21.1419 144.062 18.1196 145.931 17.1537C147.832 16.1566 152.569 16.8421 158.115 18.9297C161.948 20.3629 163.132 20.3941 164.098 19.0855C164.659 18.3065 164.69 18.1196 164.347 16.9044C163.288 13.2589 162.727 9.80042 162.727 6.62231C162.727 3.50652 162.665 3.19494 161.979 2.50947C161.013 1.54357 159.175 1.20084 157.928 1.73052C156.526 2.35368 155.248 2.26021 150.886 1.32547C146.118 0.2661 139.606 -0.0454786 135.773 0.608837ZM212.242 37.5309C212.553 37.749 211.494 39.8366 207.505 46.7848C204.701 51.7389 200.806 58.7183 198.874 62.2703C196.911 65.8846 195.01 68.9693 194.636 69.2497C194.231 69.4989 193.234 69.7171 192.423 69.7482L190.928 69.8105L190.99 68.6265C191.052 67.9411 191.707 66.0716 192.486 64.4202C196.443 56.0387 206.913 38.4968 208.502 37.5621C209.126 37.1882 211.65 37.157 212.242 37.5309ZM185.724 41.1453C187.874 41.7996 188.466 42.9836 187.593 44.853C186.97 46.2552 184.602 47.0653 179.336 47.6884C177.809 47.8442 177.684 47.813 177.684 47.221C177.684 46.8472 177.84 46.2863 177.996 45.9436C178.463 45.1023 177.715 45.1646 174.506 46.1617C169.551 47.7196 164.94 50.3992 161.387 53.733C159.704 55.3221 159.299 55.9141 159.362 56.5061C159.549 58.0328 160.359 58.3444 170.05 60.5878C171.67 60.9617 173.976 61.8029 175.503 62.5507C177.715 63.6724 178.339 64.1398 179.18 65.4484C180.146 66.8817 180.24 67.1621 180.115 68.9381C180.021 70.5583 179.803 71.1503 178.775 72.6459C175.97 76.7276 168.835 80.4042 161.636 81.4947C158.115 82.0244 154.127 82.0556 152.319 81.5259C150.543 80.9962 148.861 79.4695 148.549 78.0985L148.331 77.1326L146.991 78.784C146.243 79.6876 144.872 80.9962 143.906 81.6505C141.756 83.1149 139.232 83.4888 137.487 82.5853C135.835 81.744 133.747 79.6253 132.158 77.1949L130.663 74.8893L130.164 76.1044C129.884 76.7587 129.073 78.6905 128.357 80.4042L127.017 83.52L125.77 83.4265C125.116 83.3642 124.275 83.0526 123.963 82.7411C123.402 82.2114 123.402 82.0244 123.745 80.8093C124.524 78.2232 133.716 58.4379 138.764 48.4362L140.883 44.2299L142.846 43.2328C144.467 42.4227 144.872 42.3293 145.215 42.672C145.713 43.1394 145.713 43.1082 138.11 58.8429C135.15 64.9811 132.813 70.0598 132.875 70.1533C133.155 70.4025 136.832 67.5048 139.481 64.8876C141.507 62.9246 142.192 62.0211 142.441 61.0552C142.94 59.1857 144.685 58.469 145.9 59.6842C146.835 60.6189 146.71 62.3326 145.526 64.3579C144.342 66.4455 139.73 71.0257 137.549 72.3032C136.645 72.8017 135.929 73.3625 135.929 73.4872C135.929 74.0792 137.518 76.7587 138.422 77.6935C140.478 79.7499 141.818 79.376 145.121 75.7928C147.708 72.9886 148.393 72.8017 148.393 74.9827V76.2914L149.047 75.4501C149.733 74.5777 151.478 73.5183 151.54 73.9234C151.571 74.0792 151.571 74.4219 151.54 74.7023C151.385 76.0421 156.028 77.008 159.923 76.4783C164.441 75.8552 169.614 73.7364 172.636 71.3061C176.594 68.0968 175.472 66.9752 166.404 65.1368C159.455 63.7347 157.523 63.0804 155.747 61.5225C152.724 58.8741 153.036 55.0417 156.62 51.0846C160.141 47.1587 168.772 42.7032 175.815 41.1764C178.588 40.5533 183.698 40.5533 185.724 41.1453ZM152.724 59.4973C153.441 61.9276 155.872 63.8282 159.767 65.0745C160.639 65.3549 163.568 66.0093 166.311 66.5389C171.452 67.5672 173.322 68.128 173.322 68.6888C173.322 69.2497 170.206 71.4931 167.837 72.6459C164.223 74.3596 160.016 75.3566 156.807 75.1697C153.815 74.9827 153.067 74.7958 153.067 74.0792C153.067 72.8328 151.509 72.1162 150.263 72.7705C149.795 73.0198 149.515 72.9575 149.016 72.4589C147.988 71.4307 146.929 71.6488 145.651 73.1444C143.033 76.1979 141.631 77.4442 140.852 77.4442C140.073 77.4442 138.982 76.4472 138.017 74.8893L137.487 74.048L138.982 73.0198C141.257 71.4619 145.963 66.5701 146.96 64.7318C147.863 63.0181 148.113 61.4291 147.676 59.9023C147.489 59.1545 147.521 59.061 148.144 59.0299C148.549 59.0299 149.484 58.8429 150.263 58.6248C152.319 58.0328 152.288 58.0017 152.724 59.4973ZM140.883 59.6531C141.88 60.3074 140.229 62.7377 136.895 65.4484L136.147 66.0716L136.677 65.0745C136.957 64.5137 137.674 62.9869 138.266 61.7095C139.325 59.3726 139.824 58.9676 140.883 59.6531Z" fill="white"/>
<path d="M1.74988 1.54356C0.0360356 2.32251 -0.0886079 4.2543 1.40711 7.12083L2.40426 9.05262V29.9284V50.8042L1.40711 52.5802C0.223001 54.6366 0.0671965 56.4126 0.939702 57.472L1.46944 58.1575L23.5937 58.2509C35.7776 58.2821 45.9672 58.2198 46.2476 58.064C46.902 57.7524 47.2136 56.7554 48.2419 51.7389C48.6782 49.4956 49.3949 46.629 49.8 45.3516C50.7971 42.2358 50.766 41.2076 49.7377 40.3975C48.6782 39.5562 48.2731 39.5874 45.6867 40.5533C41.6047 42.08 39.4234 42.3916 32.0071 42.3916C26.9279 42.3916 24.9648 42.2981 24.435 41.9865C23.7495 41.6126 23.7183 41.4257 23.8118 38.5591C23.9364 34.5709 23.656 34.6956 31.5397 34.8514C36.8371 34.9448 37.8654 35.0383 39.4857 35.6303C40.4829 36.0042 41.7916 36.3158 42.3525 36.3158C43.3808 36.3158 44.6273 35.4434 44.6273 34.6644C44.7519 31.7356 44.6584 22.544 44.5026 22.0455C44.378 21.6716 43.8483 21.2354 43.2562 21.0484C42.3837 20.768 41.8228 20.8303 39.7662 21.5158C35.6529 22.8244 25.4322 23.0114 24.2169 21.765C23.5313 21.0796 23.5625 16.2813 24.2792 15.7204C24.6843 15.3777 26.0554 15.3154 30.7295 15.3777C37.5538 15.4711 41.0126 15.8139 44.2533 16.7175C46.7774 17.4029 47.9926 17.3095 48.8652 16.3436C49.426 15.7204 49.426 15.6269 48.7405 13.1655C48.3354 11.7634 47.681 8.92799 47.2448 6.87157C46.4346 2.91451 45.9672 1.85514 44.7831 1.41893C44.3468 1.26314 41.1996 1.26314 36.9305 1.48125C30.2933 1.79283 7.88858 1.63704 4.27392 1.26314C3.27677 1.16967 2.3731 1.26314 1.74988 1.54356Z" fill="white"/>
<path d="M71.7684 1.63706C70.3973 2.35369 68.9639 4.784 66.5022 10.4859C62.6694 19.4594 58.712 31.611 55.7205 43.5133C54.0378 50.2434 53.5081 51.739 52.5733 52.5179C51.2957 53.5773 50.7348 56.1634 51.5761 57.1916C51.7943 57.4408 52.324 57.9082 52.8226 58.2198C53.3523 58.5625 53.6639 59.0299 53.6639 59.4973C53.6639 60.5566 55.035 62.0522 56.3126 62.4884C58.9613 63.3608 62.3266 61.3667 62.1397 59.0299C62.0774 58.1575 62.1397 58.1263 63.3238 58.1263C64.5391 58.1263 64.5702 58.1575 64.2275 58.8118C64.0093 59.2168 62.5136 61.8964 60.8932 64.8253C54.3806 76.4783 50.8594 83.8316 50.8594 85.7322C50.8594 89.1907 56.001 90.6863 57.6525 87.6952C58.7431 85.7011 58.6497 85.7322 60.6751 86.8539C62.5448 87.8821 62.5759 87.8821 66.7515 87.8821C70.335 87.8509 71.2698 87.7575 72.9837 87.1343C76.3802 85.9192 79.434 84.2678 81.2413 82.6787L82.924 81.152L83.1421 82.0244C83.7653 84.8598 84.6378 86.0438 86.7568 86.9162C88.3148 87.5705 89.7794 87.5394 91.8672 86.8227C95.2326 85.6076 99.6262 81.744 102.711 77.1949C103.739 75.6994 103.895 75.5747 103.739 76.3537C103.21 78.9709 103.179 79.6876 103.521 81.3389C104.425 85.7011 108.601 87.3213 113.244 85.1091C119.538 82.1179 126.923 71.8669 127.017 66.0093C127.048 63.2051 126.269 62.3326 122.529 60.8994C120.753 60.2139 117.637 60.4008 115.674 61.3044C113.555 62.2703 110.657 64.6383 108.445 67.2556L106.731 69.2497L106.762 67.2867C106.793 64.4514 106.045 63.579 102.275 62.1457C101.683 61.8964 100.281 61.7406 99.1588 61.7406C96.0427 61.7406 93.5499 63.0804 89.9352 66.6947C88.346 68.2838 86.8191 70.0598 86.5075 70.6206C86.0089 71.5865 85.9466 71.6177 85.635 71.088C84.8248 69.6859 83.111 68.0968 81.7087 67.3802L80.213 66.6324L82.1138 65.2615C84.9183 63.3297 86.9438 61.3356 88.2525 59.3103C89.0939 58.0328 89.4989 57.6278 89.7482 57.8771C89.9664 58.0952 94.0173 58.2198 102.462 58.251C114.023 58.2821 114.895 58.251 115.581 57.7213C116.671 56.8488 116.578 54.9171 115.331 52.9541C113.867 50.7107 113.617 49.9941 112.278 44.1364C109.099 30.5204 101.589 8.336 98.5044 3.53769C97.0087 1.232 96.3232 1.04506 91.4621 1.45011C87.6916 1.79285 77.0034 1.66821 74.0743 1.26316C73.2018 1.13853 72.5163 1.232 71.7684 1.63706ZM82.7682 17.5587C83.8277 18.7739 86.6945 27.8408 86.6945 30.1154C86.6945 32.2653 86.3517 32.4211 81.5529 32.4211C77.6578 32.4211 77.2527 32.3587 76.8165 31.7979C76.1932 30.9566 76.4425 29.1495 77.6578 25.2547C78.8108 21.7339 80.2442 18.4 80.992 17.5587C81.6464 16.8421 82.1138 16.8421 82.7682 17.5587ZM83.6407 47.8131C87.8786 49.4644 89.6548 53.8265 87.6605 57.7524C86.2582 60.4632 82.3631 63.8594 78.1564 66.0093C76.0998 67.0686 76.0374 67.131 76.9099 67.3179C80.8985 68.128 83.2668 69.5301 84.2328 71.6177C85.0741 73.5183 84.9806 75.1385 83.89 77.3819C82.1761 80.7781 78.1564 83.8627 73.0772 85.6387C70.6778 86.48 69.8987 86.6046 66.9073 86.6046C64.3521 86.6358 63.1057 86.5112 62.0462 86.0749C60.4258 85.4518 58.9613 84.0808 58.8678 83.0838C58.8366 82.7411 58.7743 82.4295 58.712 82.4295C58.6808 82.4295 58.0888 83.6135 57.4032 85.0467C56.1568 87.7886 55.5959 88.2872 54.1313 87.9133C52.9472 87.6017 52.4175 86.8539 52.4175 85.4518C52.4175 83.8939 55.1285 78.192 60.5816 68.2526C66.1906 58.0017 68.1226 54.8859 69.1197 54.4185C70.3662 53.8577 72.859 53.6084 73.1083 54.0135C73.3576 54.4497 71.6749 57.8459 67.4682 65.2303L66.6892 66.6013L67.4059 66.3832C69.0262 65.9158 74.7287 63.0493 76.7853 61.6783C79.9949 59.5284 82.5189 57.0981 83.111 55.5091C83.5784 54.2627 83.5784 54.0758 83.1421 53.2034C82.4566 51.8636 80.9297 51.4274 77.3462 51.4585C71.4568 51.552 64.7884 54.0135 60.9244 57.5966C59.491 58.9364 59.2106 59.5284 60.2077 59.2792C61.236 59.0299 60.9556 59.8712 59.7715 60.5878C57.559 61.9899 54.9104 60.9617 54.9104 58.7183C54.9104 54.4497 62.5136 49.2152 71.4256 47.3457C74.6352 46.6914 81.3971 46.9406 83.6407 47.8131ZM89.1873 47.9377C89.9975 48.4362 90.5273 50.0876 90.278 51.2716C89.9975 52.4867 89.7171 52.4556 89.2185 51.1158C89.0315 50.5238 88.1902 49.371 87.38 48.592L85.9154 47.1276L87.2554 47.3457C88.0032 47.4392 88.8757 47.7196 89.1873 47.9377ZM81.0855 53.2345C81.5218 53.4526 81.8957 53.92 81.958 54.2627C82.1761 55.8518 77.7201 59.84 72.7655 62.4261C71.3945 63.1427 70.148 63.7347 70.0545 63.7347C69.7429 63.7347 72.2981 59.248 73.3264 58.0017C74.1055 57.0981 74.3548 56.4438 74.4482 55.1975C74.5417 54.3251 74.6352 53.4215 74.6975 53.2034C74.8845 52.6737 80.026 52.7048 81.0855 53.2345ZM121.377 62.1768C121.813 62.5196 122.623 62.8 123.246 62.8C124.088 62.8 124.524 63.0181 125.022 63.6413C126.83 65.9158 124.493 72.1785 119.694 78.0051C114.085 84.7975 107.541 86.7916 105.329 82.3983C104.02 79.8745 105.142 74.3596 107.759 70.4025C109.317 68.0345 112.932 64.3891 114.864 63.2674C117.918 61.4914 120.037 61.1175 121.377 62.1768ZM101.122 63.4232C101.558 63.7659 102.368 64.0463 102.992 64.0463C103.833 64.0463 104.269 64.2644 104.768 64.8876C106.575 67.1621 104.238 73.4248 99.4393 79.2514C93.8303 86.0438 87.2865 88.0379 85.0741 83.6446C83.7653 81.1208 84.8871 75.6059 87.5046 71.6488C89.0627 69.2808 92.6774 65.6354 94.6093 64.5137C97.6631 62.7377 99.782 62.3638 101.122 63.4232Z" fill="white"/>
<path d="M62.1085 75.2943L59.8338 79.6564L61.0179 79.0333C61.7346 78.6282 62.7941 78.379 63.6354 78.379L65.0377 78.4101L64.3521 78.971C63.4173 79.7499 63.4173 81.0585 64.321 81.5259C65.3493 82.0867 69.1509 81.931 71.3322 81.2455C73.825 80.4665 75.9128 79.0956 77.9071 77.008C80.4312 74.3596 80.4 73.0821 77.7513 71.7735C76.4114 71.1192 75.8193 71.0568 72.0489 71.0568C69.3379 71.0568 67.4371 71.2126 66.658 71.4931C65.6297 71.8358 65.4116 71.8358 64.913 71.3996C64.4145 70.9322 64.2275 71.1815 62.1085 75.2943ZM76.9723 72.9886C78.6861 73.8299 78.6238 74.4531 76.5049 76.4472C74.2301 78.6282 70.9582 80.1861 68.1849 80.4665C67.0631 80.56 65.9413 80.56 65.6609 80.4354C65.1935 80.2796 65.1935 80.2173 65.6297 79.7499C66.3153 79.0956 66.2529 77.8493 65.5362 77.4442C65.1935 77.2884 64.5079 77.1326 63.9782 77.1326C62.8252 77.1326 62.7941 76.9145 63.7601 75.0139C64.4145 73.7053 64.6949 73.4872 66.0037 73.1133C69.743 72.0227 74.9157 71.9916 76.9723 72.9886Z" fill="white"/>
<path d="M117.076 66.352C112.838 69.2185 108.819 75.2632 108.819 78.8152C108.819 80.8093 109.411 81.152 111.218 80.2796C114.085 78.9086 117.918 74.3596 120.037 69.904C121.19 67.4737 121.221 66.6324 120.192 66.2274C119.756 66.0716 119.413 65.7912 119.413 65.6042C119.413 65.0434 118.666 65.2615 117.076 66.352ZM119.289 67.5983C119.694 68.6265 115.612 75.0762 113.212 77.1949C112.433 77.8804 111.374 78.6594 110.875 78.9086L109.972 79.376L110.19 78.1608C110.47 76.6653 112.527 72.8328 114.054 70.9634C115.394 69.312 118.011 67.1621 118.666 67.1621C118.915 67.1621 119.195 67.3491 119.289 67.5983Z" fill="white"/>
<path d="M96.8218 67.5983C92.5839 70.4649 88.5641 76.5095 88.5641 80.0615C88.5641 82.0556 89.1562 82.3983 90.9635 81.5259C93.8303 80.155 97.6631 75.6059 99.7821 71.1503C100.935 68.72 100.966 67.8788 99.9379 67.4737C99.5016 67.3179 99.1589 67.0375 99.1589 66.8505C99.1589 66.2897 98.411 66.5078 96.8218 67.5983ZM99.0342 68.8447C99.4393 69.8729 95.3572 76.3225 92.9578 78.4413C92.1788 79.1268 91.1193 79.9057 90.6208 80.155L89.7171 80.6223L89.9352 79.4072C90.2157 77.9116 92.2723 74.0792 93.7992 72.2097C95.1391 70.5583 97.7566 68.4084 98.411 68.4084C98.6603 68.4084 98.9407 68.5954 99.0342 68.8447Z" fill="white"/>
<path d="M188.123 73.8922C184.664 75.6994 183.356 80.1861 185.755 82.0244C186.441 82.5541 188.435 82.523 189.463 81.9933C190.523 81.4324 191.8 80.0615 192.455 78.784C193.047 77.6 193.109 75.3255 192.548 74.6089C191.582 73.3625 189.712 73.051 188.123 73.8922ZM191.644 76.3849C191.8 78.2543 189.245 81.1832 187.469 81.1832C186.441 81.1832 185.661 79.9057 185.911 78.5971C186.347 76.3537 189.463 74.1415 190.928 75.0762C191.27 75.2943 191.582 75.8863 191.644 76.3849Z" fill="white"/>
</svg>
