<svg width="58" height="57" viewBox="0 0 58 57" fill="none" xmlns="http://www.w3.org/2000/svg">
<path d="M29.1993 7.13121e-06C27.5417 0.00209085 25.9528 0.663718 24.782 1.83938C23.6113 3.01504 22.9545 4.60847 22.9561 6.26924C22.9576 7.93 23.6174 9.52218 24.7903 10.6956C25.9633 11.8691 27.5535 12.5277 29.2111 12.5267C30.8685 12.5258 32.4578 11.8655 33.6294 10.6909C34.8011 9.5163 35.4591 7.92357 35.4589 6.26295V6.25116C35.4558 4.59053 34.7945 2.99912 33.6206 1.82687C32.4466 0.654623 30.8568 -0.00249707 29.1993 7.13121e-06ZM8.57658 14.4668C7.47813 14.4731 6.36084 14.5344 5.31339 14.7985C4.62293 14.9738 3.95522 15.2623 3.52133 15.7104C2.97681 16.2717 2.90698 17.0334 3.17297 17.6836C3.40992 18.2574 4.04859 18.6866 4.76023 18.9327C6.29023 19.4578 7.99048 19.5694 9.59971 19.8996C9.8963 19.9727 10.2243 20.0529 10.4079 20.2557C10.5985 20.497 10.4863 20.8296 10.1733 20.9813C9.65071 21.2478 8.98301 21.2494 8.37415 21.2407C7.81865 21.2171 7.20822 21.1707 6.7657 20.8917C6.44087 20.6912 6.38359 20.35 6.45656 20.0568H2.87089C2.86148 20.604 2.9674 21.1755 3.36755 21.6448C3.70179 22.0457 4.24161 22.3287 4.82222 22.4985C5.75041 22.772 6.7555 22.8546 7.74489 22.8797C9.08736 22.9025 10.4565 22.8625 11.7464 22.5574C12.5153 22.3696 13.2701 22.0661 13.7629 21.574C14.6361 20.6951 14.4306 19.3029 13.2686 18.6198C12.6903 18.2818 11.9975 18.0727 11.2913 17.9375C10.258 17.7229 9.20584 17.5656 8.15917 17.3927C7.79119 17.3212 7.4028 17.2575 7.09367 17.0838C6.77041 16.91 6.74451 16.4997 7.07405 16.3212C7.5001 16.0799 8.06737 16.0815 8.57737 16.0815C9.11482 16.0909 9.69936 16.1247 10.1419 16.377C10.2486 16.4353 10.3375 16.5215 10.3992 16.6264C10.4608 16.7314 10.4928 16.8511 10.4918 16.9729L13.901 16.9651C13.8876 16.5327 13.8076 16.0823 13.4922 15.7088C13.1258 15.249 12.4816 14.9589 11.8186 14.7891C10.779 14.5258 9.66797 14.4715 8.57658 14.4668ZM15.9723 14.7246L15.9708 22.886H25.9118V21.1071H19.6168V19.5231H25.2307V17.7834H19.6168L19.6161 16.4847L25.6842 16.4832L25.6803 14.7246H15.9723ZM32.3511 14.7278L27.7438 14.7286L27.7431 22.89H31.233L31.2314 17.3982L36.0121 22.886L40.8021 22.8908L40.8005 14.7286L37.3075 14.7294L37.3114 20.1818L32.3511 14.7278ZM47.0249 14.7411C47.0249 14.7411 43.2627 20.1857 41.3725 22.9041H45.0359L45.9146 21.4317H51.5748L52.3955 22.9049L56.4645 22.9041L51.0719 14.7427L47.0249 14.7411ZM48.8561 16.6891L50.5933 19.6457L47.0021 19.6512L48.8561 16.6891ZM0 25.1948L0.0313845 29.6364L16.6024 29.5782C17.4474 29.7598 17.9378 30.3116 17.7652 31.5639L7.57306 49.4393L10.8935 52.5483L26.6783 25.1941L0 25.1948ZM31.6198 25.2326L47.1426 52.4705L50.5729 49.3811L40.2631 31.5529C40.0905 30.2959 40.5809 29.7386 41.4267 29.5562L58 29.6151L57.9953 25.2459L31.6198 25.2326ZM29.0008 29.7393L14.4439 54.7738L18.3105 56.6613L28.0239 40.2127C28.359 39.9383 28.6979 39.7929 29.0361 39.7788C29.3939 39.7654 29.7556 39.8975 30.1181 40.1812L39.8088 56.6801L43.797 54.5954L29.0008 29.7393Z" fill="white"/>
</svg>
